<svg xmlns="http://www.w3.org/2000/svg" width="314" height="314" viewBox="0 0 314 314" fill="none">
    <path fill-rule="evenodd" clip-rule="evenodd"
          d="M314 0H0V314H314V0ZM6.1466 117.772C5 126.348 5 136.565 5 157C5 177.435 5 187.652 6.1466 196.228C13.9183 254.355 59.6452 300.082 117.772 307.853C126.348 309 136.565 309 157 309C177.435 309 187.652 309 196.228 307.853C254.355 300.082 300.082 254.355 307.853 196.228C309 187.652 309 177.435 309 157C309 136.565 309 126.348 307.853 117.772C300.082 59.6452 254.355 13.9183 196.228 6.1466C187.652 5 177.435 5 157 5C136.565 5 126.348 5 117.772 6.1466C59.6452 13.9183 13.9183 59.6452 6.1466 117.772Z"
          fill="white"/>
</svg>